<svg width="197" height="53" viewBox="0 0 197 53" fill="none" xmlns="http://www.w3.org/2000/svg">
<rect x="0.5" y="4.5" width="196" height="48" rx="24" fill="#F2F2F2" stroke="#C8C8C8"/>
<rect x="0.5" y="4.5" width="196" height="48" rx="24" fill="#C8C8C8" stroke="#C8C8C8"/>
<rect x="0.5" y="4.5" width="105" height="48" rx="24" fill="#101010" stroke="#C8C8C8"/>
<path d="M29.3843 17H34.4243C36.0643 17 37.2943 17.44 38.1143 18.32C38.9343 19.2 39.3443 20.49 39.3443 22.19V32.81C39.3443 34.51 38.9343 35.8 38.1143 36.68C37.2943 37.56 36.0643 38 34.4243 38H29.3843V17ZM34.3643 35C34.9043 35 35.3143 34.84 35.5943 34.52C35.8943 34.2 36.0443 33.68 36.0443 32.96V22.04C36.0443 21.32 35.8943 20.8 35.5943 20.48C35.3143 20.16 34.9043 20 34.3643 20H32.6843V35H34.3643ZM44.0632 17H48.5332L51.9532 38H48.6532L48.0532 33.83V33.89H44.3032L43.7032 38H40.6432L44.0632 17ZM47.6632 31.04L46.1932 20.66H46.1332L44.6932 31.04H47.6632ZM53.5542 17H58.4442C60.1442 17 61.3842 17.4 62.1642 18.2C62.9442 18.98 63.3342 20.19 63.3342 21.83V23.12C63.3342 25.3 62.6142 26.68 61.1742 27.26V27.32C61.9742 27.56 62.5342 28.05 62.8542 28.79C63.1942 29.53 63.3642 30.52 63.3642 31.76V35.45C63.3642 36.05 63.3842 36.54 63.4242 36.92C63.4642 37.28 63.5642 37.64 63.7242 38H60.3642C60.2442 37.66 60.1642 37.34 60.1242 37.04C60.0842 36.74 60.0642 36.2 60.0642 35.42V31.58C60.0642 30.62 59.9042 29.95 59.5842 29.57C59.2842 29.19 58.7542 29 57.9942 29H56.8542V38H53.5542V17ZM58.0542 26C58.7142 26 59.2042 25.83 59.5242 25.49C59.8642 25.15 60.0342 24.58 60.0342 23.78V22.16C60.0342 21.4 59.8942 20.85 59.6142 20.51C59.3542 20.17 58.9342 20 58.3542 20H56.8542V26H58.0542ZM65.6538 17H68.9538V25.85L73.1538 17H76.4538L72.5238 24.71L76.5138 38H73.0638L70.2738 28.64L68.9538 31.31V38H65.6538V17Z" fill="#F2F2F2"/>
<path d="M31.5355 1.46446C32.4732 0.526783 33.745 0 35.0711 0H69.9289C71.255 0 72.5268 0.526784 73.4645 1.46447L76 4H29L31.5355 1.46446Z" fill="#F2F2F2"/>
</svg>
