<svg width="32" height="32" viewBox="0 0 32 32" fill="none" xmlns="http://www.w3.org/2000/svg">
<rect width="32" height="32" rx="3" fill="#101010"/>
<path d="M5.70168 6H10.5617C12.2017 6 13.4317 6.44 14.2517 7.32C15.0717 8.2 15.4817 9.49 15.4817 11.19V13.26C15.4817 14.96 15.0717 16.25 14.2517 17.13C13.4317 18.01 12.2017 18.45 10.5617 18.45H9.00168V27H5.70168V6ZM10.5617 15.45C11.1017 15.45 11.5017 15.3 11.7617 15C12.0417 14.7 12.1817 14.19 12.1817 13.47V10.98C12.1817 10.26 12.0417 9.75 11.7617 9.45C11.5017 9.15 11.1017 9 10.5617 9H9.00168V15.45H10.5617ZM21.9239 27.3C20.3439 27.3 19.1339 26.85 18.2939 25.95C17.4739 25.05 17.0639 23.78 17.0639 22.14V10.86C17.0639 9.22 17.4739 7.95 18.2939 7.05C19.1339 6.15 20.3439 5.7 21.9239 5.7C23.5039 5.7 24.7039 6.15 25.5239 7.05C26.3639 7.95 26.7839 9.22 26.7839 10.86V13.08H23.6639V10.65C23.6639 9.35 23.1139 8.7 22.0139 8.7C20.9139 8.7 20.3639 9.35 20.3639 10.65V22.38C20.3639 23.66 20.9139 24.3 22.0139 24.3C23.1139 24.3 23.6639 23.66 23.6639 22.38V19.17H26.7839V22.14C26.7839 23.78 26.3639 25.05 25.5239 25.95C24.7039 26.85 23.5039 27.3 21.9239 27.3Z" fill="#EB593A"/>
</svg>
