<svg width="16" height="16" viewBox="0 0 16 16" fill="none" xmlns="http://www.w3.org/2000/svg">
<rect width="16" height="16" rx="3" fill="#F2F2F2"/>
<path d="M2.69412 3.2H4.96212C5.72745 3.2 6.30145 3.40533 6.68412 3.816C7.06678 4.22667 7.25812 4.82867 7.25812 5.622V6.588C7.25812 7.38133 7.06678 7.98333 6.68412 8.394C6.30145 8.80467 5.72745 9.01 4.96212 9.01H4.23412V13H2.69412V3.2ZM4.96212 7.61C5.21412 7.61 5.40078 7.54 5.52212 7.4C5.65278 7.26 5.71812 7.022 5.71812 6.686V5.524C5.71812 5.188 5.65278 4.95 5.52212 4.81C5.40078 4.67 5.21412 4.6 4.96212 4.6H4.23412V7.61H4.96212ZM10.2645 13.14C9.52717 13.14 8.96251 12.93 8.57051 12.51C8.18784 12.09 7.99651 11.4973 7.99651 10.732V5.468C7.99651 4.70267 8.18784 4.11 8.57051 3.69C8.96251 3.27 9.52717 3.06 10.2645 3.06C11.0018 3.06 11.5618 3.27 11.9445 3.69C12.3365 4.11 12.5325 4.70267 12.5325 5.468V6.504H11.0765V5.37C11.0765 4.76333 10.8198 4.46 10.3065 4.46C9.79317 4.46 9.53651 4.76333 9.53651 5.37V10.844C9.53651 11.4413 9.79317 11.74 10.3065 11.74C10.8198 11.74 11.0765 11.4413 11.0765 10.844V9.346H12.5325V10.732C12.5325 11.4973 12.3365 12.09 11.9445 12.51C11.5618 12.93 11.0018 13.14 10.2645 13.14Z" fill="#EB593A"/>
</svg>
