<svg width="659" height="668" viewBox="0 0 659 668" fill="none" xmlns="http://www.w3.org/2000/svg">
<path d="M402.471 531.3C402.471 531.3 425.69 538.953 448.037 511.962L396.762 411.503L344.287 311.703C343.644 310.487 342.321 309.765 340.945 309.891L337.681 310.177L288.295 206.392C289.23 205.521 289.815 204.438 289.359 202.768C270.839 169.879 304.912 163.861 354.466 165.743L363.056 161.086C315.675 149.725 273.233 153.095 235.463 170.357C231.965 182.456 213.031 188.018 205.246 185.958L181.763 195.716C178.216 212.833 183.788 225.213 198.703 232.741L225.936 221.831C236.383 198.825 250.869 197.62 268.711 214.56L319.386 318.312L317.384 320.655C316.694 321.469 316.427 322.553 316.689 323.588C324.04 352.485 339.393 387.293 358.959 425.2C375.632 457.944 396.169 494.643 402.471 531.3Z" stroke="#F2F2F2" stroke-miterlimit="10"/>
<path d="M337.684 310.167C330.923 311.551 324.852 314.315 319.386 318.311" stroke="#F2F2F2" stroke-miterlimit="10"/>
<path d="M288.299 206.383L268.712 214.56" stroke="#F2F2F2" stroke-miterlimit="10"/>
<path d="M462.948 544.023L457.197 543.509L459.628 548.746L462.948 544.023ZM440.481 555.001L459.076 546.371L458.655 545.464L440.061 554.094L440.481 555.001Z" fill="#F2F2F2"/>
<path d="M420 564L425.752 564.503L423.312 559.271L420 564ZM440.06 554.094L423.867 561.645L424.29 562.552L440.483 555.001L440.06 554.094Z" fill="#F2F2F2"/>
<path d="M448.5 513L448.087 518.759L453.281 516.236L448.5 513ZM466.737 549.405L450.915 516.829L450.016 517.266L465.837 549.841L466.737 549.405Z" fill="#F2F2F2"/>
<path d="M538.239 478.211L538.753 472.46L533.516 474.89L538.239 478.211ZM393.81 168.203L535.891 474.339L536.798 473.918L394.717 167.782L393.81 168.203Z" fill="#F2F2F2"/>
<path d="M366.9 109.033L366.386 114.784L371.623 112.353L366.9 109.033ZM394.717 167.782L369.248 112.904L368.341 113.325L393.81 168.203L394.717 167.782Z" fill="#F2F2F2"/>
<path d="M223 143L228.752 143.498L226.307 138.268L223 143ZM296.006 108.311L226.865 140.641L227.288 141.547L296.43 109.217L296.006 108.311Z" fill="#F2F2F2"/>
<path d="M330.687 92.767L324.936 92.2534L327.367 97.4904L330.687 92.767ZM281.008 116.374L326.815 95.1149L326.394 94.2079L280.587 115.467L281.008 116.374Z" fill="#F2F2F2"/>
<path d="M317.636 64.6477L311.886 64.1341L314.316 69.371L317.636 64.6477ZM244.374 99.2006L313.765 66.9956L313.344 66.0885L243.953 98.2935L244.374 99.2006Z" fill="#F2F2F2"/>
<path d="M156.178 139.582L161.928 140.096L159.498 134.859L156.178 139.582ZM243.953 98.2935L160.049 137.234L160.47 138.141L244.374 99.2006L243.953 98.2935Z" fill="#F2F2F2"/>
<g filter="url(#filter0_d_25_1171)">
<path d="M169.228 167.701L174.979 168.215L172.548 162.978L169.228 167.701ZM178.996 162.617L173.1 165.353L173.521 166.26L179.417 163.524L178.996 162.617Z" fill="#F2F2F2"/>
</g>
<path d="M192 157L186.245 156.535L188.72 161.752L192 157ZM179.42 163.522L188.149 159.381L187.72 158.477L178.992 162.619L179.42 163.522Z" fill="#F2F2F2"/>
<path d="M156.816 209.843L156.302 215.593L161.539 213.163L156.816 209.843ZM167.794 232.309L159.164 213.714L158.257 214.135L166.887 232.73L167.794 232.309Z" fill="#F2F2F2"/>
<path d="M172.813 244.311L173.327 238.561L168.09 240.991L172.813 244.311ZM166.887 232.73L170.465 240.44L171.372 240.019L167.794 232.309L166.887 232.73Z" fill="#F2F2F2"/>
<path d="M292.429 331.013L292.942 325.263L287.705 327.693L292.429 331.013ZM255.35 252.309L290.081 327.142L290.988 326.721L256.257 251.888L255.35 252.309Z" fill="#F2F2F2"/>
<path d="M376 549L376.513 543.25L371.276 545.681L376 549ZM290.091 365.171L373.651 545.129L374.558 544.708L290.998 364.75L290.091 365.171Z" fill="#F2F2F2"/>
<path d="M278.757 339.563L278.244 345.314L283.481 342.883L278.757 339.563ZM290.998 364.75L281.105 343.434L280.198 343.855L290.091 365.171L290.998 364.75Z" fill="#F2F2F2"/>
<path d="M244.016 226.7L243.502 232.451L248.739 230.02L244.016 226.7ZM256.257 251.888L246.364 230.572L245.457 230.992L255.35 252.309L256.257 251.888Z" fill="#F2F2F2"/>
<line x1="408.916" y1="540.436" x2="422.809" y2="570.369" stroke="#F2F2F2" stroke-dasharray="4 4 6 2"/>
<line x1="403.426" y1="536.92" x2="362.608" y2="555.864" stroke="#F2F2F2" stroke-dasharray="4 4 6 2"/>
<line x1="432.661" y1="539.338" x2="425.925" y2="524.825" stroke="#F2F2F2" stroke-dasharray="4 4 6 2"/>
<line x1="448.65" y1="520.341" x2="551.149" y2="472.771" stroke="#F2F2F2" stroke-dasharray="4 4 6 2"/>
<line x1="363.135" y1="161.494" x2="318.09" y2="64.4372" stroke="#F2F2F2" stroke-dasharray="4 4 6 2"/>
<line x1="235.165" y1="169.622" x2="374.853" y2="104.791" stroke="#F2F2F2" stroke-dasharray="4 4 6 2"/>
<line x1="149.9" y1="209.194" x2="180.74" y2="194.881" stroke="#F2F2F2" stroke-dasharray="4 4 6 2"/>
<line x1="167.581" y1="247.291" x2="198.421" y2="232.978" stroke="#F2F2F2" stroke-dasharray="4 4 6 2"/>
<line x1="269.476" y1="343.319" x2="316.644" y2="321.428" stroke="#F2F2F2" stroke-dasharray="4 4 6 2"/>
<path d="M237.456 229.193L268.296 214.88" stroke="#F2F2F2" stroke-dasharray="4 4 6 2"/>
<line x1="181.404" y1="195.124" x2="153.62" y2="135.257" stroke="#F2F2F2" stroke-dasharray="4 4 6 2"/>
<line x1="234.921" y1="170.286" x2="221.029" y2="140.353" stroke="#F2F2F2" stroke-dasharray="4 4 6 2"/>
<line x1="204.988" y1="184.179" x2="191.096" y2="154.245" stroke="#F2F2F2" stroke-dasharray="4 4 6 2"/>
<line x1="189.581" y1="213.93" x2="176.882" y2="219.823" stroke="#F2F2F2" stroke-dasharray="4 4 6 2"/>
<line x1="213.165" y1="202.984" x2="195.023" y2="211.403" stroke="#F2F2F2" stroke-dasharray="4 4 6 2"/>
<line x1="234.027" y1="193.301" x2="219.514" y2="200.037" stroke="#F2F2F2" stroke-dasharray="4 4 6 2"/>
<line x1="287.544" y1="168.464" x2="249.448" y2="186.145" stroke="#F2F2F2" stroke-dasharray="4 4 6 2"/>
<line x1="302.157" y1="258.146" x2="273.53" y2="196.465" stroke="#F2F2F2" stroke-dasharray="4 4 6 2"/>
<line x1="265.953" y1="180.138" x2="246.588" y2="138.413" stroke="#F2F2F2" stroke-dasharray="4 4 6 2"/>
<line x1="332.046" y1="322.548" x2="309.734" y2="274.474" stroke="#F2F2F2" stroke-dasharray="4 4 6 2"/>
<line x1="387.616" y1="442.281" x2="340.045" y2="339.782" stroke="#F2F2F2" stroke-dasharray="4 4 6 2"/>
<line x1="409.086" y1="488.542" x2="389.721" y2="446.817" stroke="#F2F2F2" stroke-dasharray="4 4 6 2"/>
<line x1="424.662" y1="522.104" x2="410.77" y2="492.17" stroke="#F2F2F2" stroke-dasharray="4 4 6 2"/>
<line x1="307.63" y1="269.938" x2="304.683" y2="263.589" stroke="#F2F2F2" stroke-dasharray="4 4 6 2"/>
<line x1="337.098" y1="333.433" x2="334.151" y2="327.084" stroke="#F2F2F2" stroke-dasharray="4 4 6 2"/>
<line x1="271.004" y1="191.023" x2="268.058" y2="184.674" stroke="#F2F2F2" stroke-dasharray="4 4 6 2"/>
<defs>
<filter id="filter0_d_25_1171" x="165.229" y="162.617" width="18.188" height="13.5981" filterUnits="userSpaceOnUse" color-interpolation-filters="sRGB">
<feFlood flood-opacity="0" result="BackgroundImageFix"/>
<feColorMatrix in="SourceAlpha" type="matrix" values="0 0 0 0 0 0 0 0 0 0 0 0 0 0 0 0 0 0 127 0" result="hardAlpha"/>
<feOffset dy="4"/>
<feGaussianBlur stdDeviation="2"/>
<feComposite in2="hardAlpha" operator="out"/>
<feColorMatrix type="matrix" values="0 0 0 0 0 0 0 0 0 0 0 0 0 0 0 0 0 0 0.25 0"/>
<feBlend mode="normal" in2="BackgroundImageFix" result="effect1_dropShadow_25_1171"/>
<feBlend mode="normal" in="SourceGraphic" in2="effect1_dropShadow_25_1171" result="shape"/>
</filter>
</defs>
</svg>
