<svg width="311" height="204" viewBox="0 0 311 204" fill="none" xmlns="http://www.w3.org/2000/svg">
<path d="M220.93 124.999C212.9 95.1255 197.25 68.3934 180.29 42.0441C175.44 34.5143 168.75 28.2314 160.68 24.1474C139.96 13.6529 115.53 14.9782 89.46 26.3956C74.06 33.1399 62.34 46.2753 58.03 62.2871C51.99 84.7095 57.15 109.194 66.03 122.682L93.08 163.129C95.14 166.202 98.99 167.606 102.59 166.585L156.51 151.348C157.81 150.975 159.01 150.327 160.05 149.473C174.01 137.909 187.72 133.255 200.43 135.582C201.95 135.857 203.51 135.769 204.98 135.307L217.31 131.469C220.08 130.605 221.68 127.758 220.94 125.009L220.93 124.999Z" stroke="#F2F2F2" stroke-miterlimit="10"/>
<path d="M220.93 124.999L305.94 97.1279L309.8 109.91" stroke="#F2F2F2" stroke-miterlimit="10"/>
<path d="M202.81 79.9382C203.8 79.7026 204.68 79.3982 205.46 79.035C208.15 77.7784 209.33 74.6173 208.25 71.8881C207.48 69.9541 206.22 68.8939 204.67 68.3539L202.31 68.2852C201.6 68.2656 201.02 67.706 200.98 67.009L200.8 63.5042C200.76 62.7974 200.18 62.2477 199.46 62.228L197.05 62.1789C196.21 62.1593 195.58 61.4132 195.73 60.6082L195.94 59.4301C196.07 58.6938 195.56 57.987 194.81 57.8692L193.91 57.7219C193.35 57.6336 192.9 57.2114 192.79 56.6617L192.23 53.9031C192.12 53.3533 191.68 52.9312 191.12 52.8428L187.18 52.1851" stroke="#F2F2F2" stroke-miterlimit="10"/>
<path d="M67.5298 124.764L65.1898 128.2C63.6598 130.448 63.6098 133.364 65.0498 135.671L81.3998 161.676C82.9198 164.091 85.7998 165.358 88.6498 164.847L93.5798 163.964L67.5198 124.764H67.5298Z" stroke="#F2F2F2" stroke-miterlimit="10"/>
<path d="M120.91 128.494C148.198 128.494 170.32 106.777 170.32 79.9876C170.32 53.1981 148.198 31.481 120.91 31.481C93.6216 31.481 71.5 53.1981 71.5 79.9876C71.5 106.777 93.6216 128.494 120.91 128.494Z" stroke="#F2F2F2" stroke-miterlimit="10"/>
<line x1="89.1524" y1="173.476" x2="39.1524" y2="189.476" stroke="#F2F2F2" stroke-dasharray="4 4 6 2"/>
<line x1="101.478" y1="174.852" x2="110.478" y2="203.852" stroke="#F2F2F2" stroke-dasharray="4 4 6 2"/>
<line x1="224.474" y1="132.842" x2="233.474" y2="159.842" stroke="#F2F2F2" stroke-dasharray="4 4 6 2"/>
<line x1="211.824" y1="74.5318" x2="227.824" y2="68.5318" stroke="#F2F2F2" stroke-dasharray="4 4 6 2"/>
<line x1="194.836" y1="45.5278" x2="217.836" y2="37.5278" stroke="#F2F2F2" stroke-dasharray="4 4 6 2"/>
<line x1="94.4743" y1="0.841886" x2="147.474" y2="159.842" stroke="#F2F2F2" stroke-dasharray="4 4 6 2"/>
<line x1="210.158" y1="46.4743" x2="201.158" y2="49.4743" stroke="#F2F2F2" stroke-dasharray="4 4 6 2"/>
<line x1="210.161" y1="46.4734" x2="10.161" y2="114.473" stroke="#F2F2F2" stroke-dasharray="4 4 6 2"/>
<line x1="210.161" y1="46.4734" x2="10.161" y2="114.473" stroke="#F2F2F2" stroke-dasharray="4 4 6 2"/>
<line x1="74.16" y1="33.4737" x2="0.160036" y2="58.4737" stroke="#F2F2F2" stroke-dasharray="4 4 6 2"/>
<path d="M9 57L7.82916 62.6535L13.3107 60.8407L9 57ZM51 184L52.1708 178.346L46.6893 180.159L51 184ZM9.93821 61.4294L49.1124 179.885L50.0618 179.571L10.8876 61.1154L9.93821 61.4294Z" fill="#F2F2F2"/>
<path d="M109 196L114.662 197.129L112.809 191.661L109 196ZM230 155L224.338 153.871L226.191 159.339L230 155ZM113.422 195.029L225.898 156.918L225.578 155.971L113.102 194.082L113.422 195.029Z" fill="#F2F2F2"/>
<path d="M212 40L210.788 45.6448L216.282 43.8723L212 40ZM222 71L223.212 65.3552L217.718 67.1277L222 71ZM212.906 44.4362L220.143 66.8708L221.094 66.5638L213.857 44.1292L212.906 44.4362Z" fill="#F2F2F2"/>
</svg>
