<svg width="360" height="462" viewBox="0 0 360 462" fill="none" xmlns="http://www.w3.org/2000/svg">
<path d="M204.408 66.7494C217.524 65.092 229.632 67.7229 240.416 75.9041L209.774 191.061C199.934 197.998 195.246 205.632 201.378 214.747C202.136 215.874 201.75 217.469 200.455 217.878C189.349 221.382 178.979 218.046 169.165 209.532C168.115 208.622 168.372 206.953 169.57 206.249C179.516 200.403 182.414 192.168 173.939 180.073L204.421 66.7453L204.408 66.7494Z" stroke="#F2F2F2" stroke-miterlimit="10"/>
<path d="M204.407 66.7493C215.683 50.7005 237.781 56.2898 240.416 75.9041" stroke="#F2F2F2" stroke-miterlimit="10"/>
<path d="M209.761 191.065C196.31 192.803 184.58 188.356 173.913 180.081" stroke="#F2F2F2" stroke-miterlimit="10"/>
<path d="M190.196 219.077L148.866 374.758L148.216 386.088L139.983 406.546L127.228 402.728L130.864 381.058L136.094 370.301L177.398 215.475" stroke="#F2F2F2" stroke-miterlimit="10"/>
<line x1="171.876" y1="45.6798" x2="211.068" y2="56.9951" stroke="#F2F2F2" stroke-dasharray="4 4 6 2"/>
<line x1="240.917" y1="64.593" x2="278.333" y2="74.9874" stroke="#F2F2F2" stroke-dasharray="4 4 6 2"/>
<line x1="145.924" y1="408.473" x2="185.115" y2="419.788" stroke="#F2F2F2" stroke-dasharray="4 4 6 2"/>
<line x1="84.0132" y1="391.006" x2="123.205" y2="402.321" stroke="#F2F2F2" stroke-dasharray="4 4 6 2"/>
<line x1="125.794" y1="197.513" x2="164.985" y2="208.829" stroke="#F2F2F2" stroke-dasharray="4 4 6 2"/>
<line x1="138.73" y1="170.425" x2="171.674" y2="180.753" stroke="#F2F2F2" stroke-dasharray="4 4 6 2"/>
<line x1="243.357" y1="69.9124" x2="253.784" y2="30.2606" stroke="#F2F2F2" stroke-dasharray="4 4 6 2"/>
<line x1="209.197" y1="51.0653" x2="217.717" y2="19.4359" stroke="#F2F2F2" stroke-dasharray="4 4 6 2"/>
<line x1="124.682" y1="442.064" x2="232.247" y2="34.8607" stroke="#F2F2F2" stroke-dasharray="4 4 6 2"/>
<path d="M179.3 48.9561L175.239 53.0606L180.824 54.5247L179.3 48.9561ZM147.063 171.923L151.123 167.818L145.539 166.354L147.063 171.923ZM177.675 53.1822L147.72 167.443L148.688 167.697L178.642 53.4358L177.675 53.1822Z" fill="#F2F2F2"/>
<path d="M138.149 199.968L134.106 204.09L139.697 205.53L138.149 199.968ZM89.267 389.778L93.3095 385.655L87.7184 384.216L89.267 389.778ZM136.542 204.201L89.905 385.295L90.8735 385.544L137.511 204.451L136.542 204.201Z" fill="#F2F2F2"/>
<path d="M272.873 72.7065L268.793 76.791L274.37 78.2826L272.873 72.7065ZM180.538 417.966L184.619 413.882L179.041 412.39L180.538 417.966ZM271.227 76.9246L181.218 413.49L182.184 413.748L272.193 77.1829L271.227 76.9246Z" fill="#F2F2F2"/>
<path d="M216.292 27.5884L220.515 31.5254L221.813 25.8998L216.292 27.5884ZM251.505 35.7139L247.282 31.7768L245.984 37.4025L251.505 35.7139ZM220.564 29.0874L247.008 35.1893L247.233 34.2149L220.789 28.113L220.564 29.0874Z" fill="#F2F2F2"/>
</svg>
