<svg width="600" height="934" viewBox="0 0 600 934" fill="none" xmlns="http://www.w3.org/2000/svg">
<path d="M273.147 642.72C273.147 641.22 273.387 639.94 273.867 638.88C274.347 637.8 275.207 636.61 276.447 635.31C277.667 634.01 278.507 632.9 278.967 631.98C279.447 631.06 279.687 630.1 279.687 629.1C279.687 628.2 279.537 627.58 279.237 627.24C278.957 626.88 278.537 626.7 277.977 626.7C276.837 626.7 276.267 627.39 276.267 628.77V631.02H273.147V628.98C273.147 627.28 273.567 625.98 274.407 625.08C275.247 624.16 276.467 623.7 278.067 623.7C279.667 623.7 280.887 624.16 281.727 625.08C282.567 625.98 282.987 627.28 282.987 628.98C282.987 630.26 282.677 631.51 282.057 632.73C281.457 633.95 280.407 635.35 278.907 636.93C277.927 637.97 277.267 638.82 276.927 639.48C276.587 640.12 276.417 640.81 276.417 641.55V642H282.687V645H273.147V642.72ZM289.988 645.3C288.368 645.3 287.128 644.84 286.268 643.92C285.408 643 284.978 641.7 284.978 640.02V628.98C284.978 627.3 285.408 626 286.268 625.08C287.128 624.16 288.368 623.7 289.988 623.7C291.608 623.7 292.848 624.16 293.708 625.08C294.568 626 294.998 627.3 294.998 628.98V640.02C294.998 641.7 294.568 643 293.708 643.92C292.848 644.84 291.608 645.3 289.988 645.3ZM289.988 642.3C291.128 642.3 291.698 641.61 291.698 640.23V628.77C291.698 627.39 291.128 626.7 289.988 626.7C288.848 626.7 288.278 627.39 288.278 628.77V640.23C288.278 641.61 288.848 642.3 289.988 642.3ZM297.17 642.72C297.17 641.22 297.41 639.94 297.89 638.88C298.37 637.8 299.23 636.61 300.47 635.31C301.69 634.01 302.53 632.9 302.99 631.98C303.47 631.06 303.71 630.1 303.71 629.1C303.71 628.2 303.56 627.58 303.26 627.24C302.98 626.88 302.56 626.7 302 626.7C300.86 626.7 300.29 627.39 300.29 628.77V631.02H297.17V628.98C297.17 627.28 297.59 625.98 298.43 625.08C299.27 624.16 300.49 623.7 302.09 623.7C303.69 623.7 304.91 624.16 305.75 625.08C306.59 625.98 307.01 627.28 307.01 628.98C307.01 630.26 306.7 631.51 306.08 632.73C305.48 633.95 304.43 635.35 302.93 636.93C301.95 637.97 301.29 638.82 300.95 639.48C300.61 640.12 300.44 640.81 300.44 641.55V642H306.71V645H297.17V642.72ZM314.012 645.3C312.392 645.3 311.152 644.84 310.292 643.92C309.432 643 309.002 641.7 309.002 640.02V628.98C309.002 627.3 309.432 626 310.292 625.08C311.152 624.16 312.392 623.7 314.012 623.7C315.632 623.7 316.872 624.16 317.732 625.08C318.592 626 319.022 627.3 319.022 628.98V640.02C319.022 641.7 318.592 643 317.732 643.92C316.872 644.84 315.632 645.3 314.012 645.3ZM314.012 642.3C315.152 642.3 315.722 641.61 315.722 640.23V628.77C315.722 627.39 315.152 626.7 314.012 626.7C312.872 626.7 312.302 627.39 312.302 628.77V640.23C312.302 641.61 312.872 642.3 314.012 642.3Z" fill="#F2F2F2"/>
<path d="M273.147 704.72C273.147 703.22 273.387 701.94 273.867 700.88C274.347 699.8 275.207 698.61 276.447 697.31C277.667 696.01 278.507 694.9 278.967 693.98C279.447 693.06 279.687 692.1 279.687 691.1C279.687 690.2 279.537 689.58 279.237 689.24C278.957 688.88 278.537 688.7 277.977 688.7C276.837 688.7 276.267 689.39 276.267 690.77V693.02H273.147V690.98C273.147 689.28 273.567 687.98 274.407 687.08C275.247 686.16 276.467 685.7 278.067 685.7C279.667 685.7 280.887 686.16 281.727 687.08C282.567 687.98 282.987 689.28 282.987 690.98C282.987 692.26 282.677 693.51 282.057 694.73C281.457 695.95 280.407 697.35 278.907 698.93C277.927 699.97 277.267 700.82 276.927 701.48C276.587 702.12 276.417 702.81 276.417 703.55V704H282.687V707H273.147V704.72ZM289.988 707.3C288.368 707.3 287.128 706.84 286.268 705.92C285.408 705 284.978 703.7 284.978 702.02V690.98C284.978 689.3 285.408 688 286.268 687.08C287.128 686.16 288.368 685.7 289.988 685.7C291.608 685.7 292.848 686.16 293.708 687.08C294.568 688 294.998 689.3 294.998 690.98V702.02C294.998 703.7 294.568 705 293.708 705.92C292.848 706.84 291.608 707.3 289.988 707.3ZM289.988 704.3C291.128 704.3 291.698 703.61 291.698 702.23V690.77C291.698 689.39 291.128 688.7 289.988 688.7C288.848 688.7 288.278 689.39 288.278 690.77V702.23C288.278 703.61 288.848 704.3 289.988 704.3ZM301.85 690.98H298.4V688.64C299.34 688.64 300.09 688.56 300.65 688.4C301.23 688.24 301.69 687.98 302.03 687.62C302.37 687.24 302.67 686.7 302.93 686H305.15V707H301.85V690.98ZM313.892 707.3C312.292 707.3 311.072 706.85 310.232 705.95C309.392 705.03 308.972 703.72 308.972 702.02V701.63H312.092V702.23C312.092 703.61 312.662 704.3 313.802 704.3C314.422 704.3 314.882 704.11 315.182 703.73C315.482 703.35 315.632 702.68 315.632 701.72V697.7H315.572C314.992 698.92 313.992 699.53 312.572 699.53C311.372 699.53 310.462 699.12 309.842 698.3C309.222 697.48 308.912 696.29 308.912 694.73V690.98C308.912 689.3 309.342 688 310.202 687.08C311.062 686.16 312.302 685.7 313.922 685.7C315.542 685.7 316.782 686.16 317.642 687.08C318.502 688 318.932 689.3 318.932 690.98V701.84C318.932 705.48 317.252 707.3 313.892 707.3ZM313.922 696.53C315.062 696.53 315.632 695.84 315.632 694.46V690.74C315.632 689.38 315.062 688.7 313.922 688.7C312.782 688.7 312.212 689.38 312.212 690.74V694.46C312.212 695.84 312.782 696.53 313.922 696.53Z" fill="#F2F2F2"/>
<path d="M275.147 885.72C275.147 884.22 275.387 882.94 275.867 881.88C276.347 880.8 277.207 879.61 278.447 878.31C279.667 877.01 280.507 875.9 280.967 874.98C281.447 874.06 281.687 873.1 281.687 872.1C281.687 871.2 281.537 870.58 281.237 870.24C280.957 869.88 280.537 869.7 279.977 869.7C278.837 869.7 278.267 870.39 278.267 871.77V874.02H275.147V871.98C275.147 870.28 275.567 868.98 276.407 868.08C277.247 867.16 278.467 866.7 280.067 866.7C281.667 866.7 282.887 867.16 283.727 868.08C284.567 868.98 284.987 870.28 284.987 871.98C284.987 873.26 284.677 874.51 284.057 875.73C283.457 876.95 282.407 878.35 280.907 879.93C279.927 880.97 279.267 881.82 278.927 882.48C278.587 883.12 278.417 883.81 278.417 884.55V885H284.687V888H275.147V885.72ZM291.988 888.3C290.368 888.3 289.128 887.84 288.268 886.92C287.408 886 286.978 884.7 286.978 883.02V871.98C286.978 870.3 287.408 869 288.268 868.08C289.128 867.16 290.368 866.7 291.988 866.7C293.608 866.7 294.848 867.16 295.708 868.08C296.568 869 296.998 870.3 296.998 871.98V883.02C296.998 884.7 296.568 886 295.708 886.92C294.848 887.84 293.608 888.3 291.988 888.3ZM291.988 885.3C293.128 885.3 293.698 884.61 293.698 883.23V871.77C293.698 870.39 293.128 869.7 291.988 869.7C290.848 869.7 290.278 870.39 290.278 871.77V883.23C290.278 884.61 290.848 885.3 291.988 885.3ZM304 888.3C302.38 888.3 301.14 887.84 300.28 886.92C299.42 886 298.99 884.7 298.99 883.02V871.98C298.99 870.3 299.42 869 300.28 868.08C301.14 867.16 302.38 866.7 304 866.7C305.62 866.7 306.86 867.16 307.72 868.08C308.58 869 309.01 870.3 309.01 871.98V883.02C309.01 884.7 308.58 886 307.72 886.92C306.86 887.84 305.62 888.3 304 888.3ZM304 885.3C305.14 885.3 305.71 884.61 305.71 883.23V871.77C305.71 870.39 305.14 869.7 304 869.7C302.86 869.7 302.29 870.39 302.29 871.77V883.23C302.29 884.61 302.86 885.3 304 885.3ZM315.892 888.3C314.292 888.3 313.072 887.85 312.232 886.95C311.392 886.03 310.972 884.72 310.972 883.02V882.63H314.092V883.23C314.092 884.61 314.662 885.3 315.802 885.3C316.422 885.3 316.882 885.11 317.182 884.73C317.482 884.35 317.632 883.68 317.632 882.72V878.7H317.572C316.992 879.92 315.992 880.53 314.572 880.53C313.372 880.53 312.462 880.12 311.842 879.3C311.222 878.48 310.912 877.29 310.912 875.73V871.98C310.912 870.3 311.342 869 312.202 868.08C313.062 867.16 314.302 866.7 315.922 866.7C317.542 866.7 318.782 867.16 319.642 868.08C320.502 869 320.932 870.3 320.932 871.98V882.84C320.932 886.48 319.252 888.3 315.892 888.3ZM315.922 877.53C317.062 877.53 317.632 876.84 317.632 875.46V871.74C317.632 870.38 317.062 869.7 315.922 869.7C314.782 869.7 314.212 870.38 314.212 871.74V875.46C314.212 876.84 314.782 877.53 315.922 877.53Z" fill="#F2F2F2"/>
<path d="M275.147 578.72C275.147 577.22 275.387 575.94 275.867 574.88C276.347 573.8 277.207 572.61 278.447 571.31C279.667 570.01 280.507 568.9 280.967 567.98C281.447 567.06 281.687 566.1 281.687 565.1C281.687 564.2 281.537 563.58 281.237 563.24C280.957 562.88 280.537 562.7 279.977 562.7C278.837 562.7 278.267 563.39 278.267 564.77V567.02H275.147V564.98C275.147 563.28 275.567 561.98 276.407 561.08C277.247 560.16 278.467 559.7 280.067 559.7C281.667 559.7 282.887 560.16 283.727 561.08C284.567 561.98 284.987 563.28 284.987 564.98C284.987 566.26 284.677 567.51 284.057 568.73C283.457 569.95 282.407 571.35 280.907 572.93C279.927 573.97 279.267 574.82 278.927 575.48C278.587 576.12 278.417 576.81 278.417 577.55V578H284.687V581H275.147V578.72ZM291.988 581.3C290.368 581.3 289.128 580.84 288.268 579.92C287.408 579 286.978 577.7 286.978 576.02V564.98C286.978 563.3 287.408 562 288.268 561.08C289.128 560.16 290.368 559.7 291.988 559.7C293.608 559.7 294.848 560.16 295.708 561.08C296.568 562 296.998 563.3 296.998 564.98V576.02C296.998 577.7 296.568 579 295.708 579.92C294.848 580.84 293.608 581.3 291.988 581.3ZM291.988 578.3C293.128 578.3 293.698 577.61 293.698 576.23V564.77C293.698 563.39 293.128 562.7 291.988 562.7C290.848 562.7 290.278 563.39 290.278 564.77V576.23C290.278 577.61 290.848 578.3 291.988 578.3ZM299.17 578.72C299.17 577.22 299.41 575.94 299.89 574.88C300.37 573.8 301.23 572.61 302.47 571.31C303.69 570.01 304.53 568.9 304.99 567.98C305.47 567.06 305.71 566.1 305.71 565.1C305.71 564.2 305.56 563.58 305.26 563.24C304.98 562.88 304.56 562.7 304 562.7C302.86 562.7 302.29 563.39 302.29 564.77V567.02H299.17V564.98C299.17 563.28 299.59 561.98 300.43 561.08C301.27 560.16 302.49 559.7 304.09 559.7C305.69 559.7 306.91 560.16 307.75 561.08C308.59 561.98 309.01 563.28 309.01 564.98C309.01 566.26 308.7 567.51 308.08 568.73C307.48 569.95 306.43 571.35 304.93 572.93C303.95 573.97 303.29 574.82 302.95 575.48C302.61 576.12 302.44 576.81 302.44 577.55V578H308.71V581H299.17V578.72ZM315.862 564.98H312.412V562.64C313.352 562.64 314.102 562.56 314.662 562.4C315.242 562.24 315.702 561.98 316.042 561.62C316.382 561.24 316.682 560.7 316.942 560H319.162V581H315.862V564.98Z" fill="#F2F2F2"/>
<path d="M275.147 391.72C275.147 390.22 275.387 388.94 275.867 387.88C276.347 386.8 277.207 385.61 278.447 384.31C279.667 383.01 280.507 381.9 280.967 380.98C281.447 380.06 281.687 379.1 281.687 378.1C281.687 377.2 281.537 376.58 281.237 376.24C280.957 375.88 280.537 375.7 279.977 375.7C278.837 375.7 278.267 376.39 278.267 377.77V380.02H275.147V377.98C275.147 376.28 275.567 374.98 276.407 374.08C277.247 373.16 278.467 372.7 280.067 372.7C281.667 372.7 282.887 373.16 283.727 374.08C284.567 374.98 284.987 376.28 284.987 377.98C284.987 379.26 284.677 380.51 284.057 381.73C283.457 382.95 282.407 384.35 280.907 385.93C279.927 386.97 279.267 387.82 278.927 388.48C278.587 389.12 278.417 389.81 278.417 390.55V391H284.687V394H275.147V391.72ZM291.988 394.3C290.368 394.3 289.128 393.84 288.268 392.92C287.408 392 286.978 390.7 286.978 389.02V377.98C286.978 376.3 287.408 375 288.268 374.08C289.128 373.16 290.368 372.7 291.988 372.7C293.608 372.7 294.848 373.16 295.708 374.08C296.568 375 296.998 376.3 296.998 377.98V389.02C296.998 390.7 296.568 392 295.708 392.92C294.848 393.84 293.608 394.3 291.988 394.3ZM291.988 391.3C293.128 391.3 293.698 390.61 293.698 389.23V377.77C293.698 376.39 293.128 375.7 291.988 375.7C290.848 375.7 290.278 376.39 290.278 377.77V389.23C290.278 390.61 290.848 391.3 291.988 391.3ZM299.17 391.72C299.17 390.22 299.41 388.94 299.89 387.88C300.37 386.8 301.23 385.61 302.47 384.31C303.69 383.01 304.53 381.9 304.99 380.98C305.47 380.06 305.71 379.1 305.71 378.1C305.71 377.2 305.56 376.58 305.26 376.24C304.98 375.88 304.56 375.7 304 375.7C302.86 375.7 302.29 376.39 302.29 377.77V380.02H299.17V377.98C299.17 376.28 299.59 374.98 300.43 374.08C301.27 373.16 302.49 372.7 304.09 372.7C305.69 372.7 306.91 373.16 307.75 374.08C308.59 374.98 309.01 376.28 309.01 377.98C309.01 379.26 308.7 380.51 308.08 381.73C307.48 382.95 306.43 384.35 304.93 385.93C303.95 386.97 303.29 387.82 302.95 388.48C302.61 389.12 302.44 389.81 302.44 390.55V391H308.71V394H299.17V391.72ZM315.922 394.3C314.302 394.3 313.072 393.85 312.232 392.95C311.412 392.05 311.002 390.76 311.002 389.08V387.37H314.122V389.23C314.122 390.61 314.692 391.3 315.832 391.3C316.392 391.3 316.812 391.13 317.092 390.79C317.392 390.43 317.542 389.81 317.542 388.93V387.22C317.542 386.26 317.372 385.58 317.032 385.18C316.692 384.76 316.142 384.55 315.382 384.55H314.272V381.55H315.472C316.132 381.55 316.622 381.38 316.942 381.04C317.282 380.7 317.452 380.13 317.452 379.33V377.8C317.452 377.08 317.302 376.55 317.002 376.21C316.702 375.87 316.302 375.7 315.802 375.7C314.742 375.7 314.212 376.35 314.212 377.65V379.03H311.092V377.92C311.092 376.24 311.502 374.95 312.322 374.05C313.162 373.15 314.362 372.7 315.922 372.7C317.502 372.7 318.702 373.15 319.522 374.05C320.342 374.93 320.752 376.21 320.752 377.89V378.64C320.752 379.78 320.562 380.7 320.182 381.4C319.802 382.08 319.212 382.57 318.412 382.87V382.93C319.272 383.25 319.892 383.77 320.272 384.49C320.652 385.21 320.842 386.13 320.842 387.25V389.11C320.842 390.79 320.422 392.08 319.582 392.98C318.762 393.86 317.542 394.3 315.922 394.3Z" fill="#F2F2F2"/>
<path d="M281.147 247.72C281.147 246.22 281.387 244.94 281.867 243.88C282.347 242.8 283.207 241.61 284.447 240.31C285.667 239.01 286.507 237.9 286.967 236.98C287.447 236.06 287.687 235.1 287.687 234.1C287.687 233.2 287.537 232.58 287.237 232.24C286.957 231.88 286.537 231.7 285.977 231.7C284.837 231.7 284.267 232.39 284.267 233.77V236.02H281.147V233.98C281.147 232.28 281.567 230.98 282.407 230.08C283.247 229.16 284.467 228.7 286.067 228.7C287.667 228.7 288.887 229.16 289.727 230.08C290.567 230.98 290.987 232.28 290.987 233.98C290.987 235.26 290.677 236.51 290.057 237.73C289.457 238.95 288.407 240.35 286.907 241.93C285.927 242.97 285.267 243.82 284.927 244.48C284.587 245.12 284.417 245.81 284.417 246.55V247H290.687V250H281.147V247.72ZM297.988 250.3C296.368 250.3 295.128 249.84 294.268 248.92C293.408 248 292.978 246.7 292.978 245.02V233.98C292.978 232.3 293.408 231 294.268 230.08C295.128 229.16 296.368 228.7 297.988 228.7C299.608 228.7 300.848 229.16 301.708 230.08C302.568 231 302.998 232.3 302.998 233.98V245.02C302.998 246.7 302.568 248 301.708 248.92C300.848 249.84 299.608 250.3 297.988 250.3ZM297.988 247.3C299.128 247.3 299.698 246.61 299.698 245.23V233.77C299.698 232.39 299.128 231.7 297.988 231.7C296.848 231.7 296.278 232.39 296.278 233.77V245.23C296.278 246.61 296.848 247.3 297.988 247.3ZM305.17 247.72C305.17 246.22 305.41 244.94 305.89 243.88C306.37 242.8 307.23 241.61 308.47 240.31C309.69 239.01 310.53 237.9 310.99 236.98C311.47 236.06 311.71 235.1 311.71 234.1C311.71 233.2 311.56 232.58 311.26 232.24C310.98 231.88 310.56 231.7 310 231.7C308.86 231.7 308.29 232.39 308.29 233.77V236.02H305.17V233.98C305.17 232.28 305.59 230.98 306.43 230.08C307.27 229.16 308.49 228.7 310.09 228.7C311.69 228.7 312.91 229.16 313.75 230.08C314.59 230.98 315.01 232.28 315.01 233.98C315.01 235.26 314.7 236.51 314.08 237.73C313.48 238.95 312.43 240.35 310.93 241.93C309.95 242.97 309.29 243.82 308.95 244.48C308.61 245.12 308.44 245.81 308.44 246.55V247H314.71V250H305.17V247.72ZM322.762 246.19H316.462V243.19L322.462 229H326.062V243.19H327.622V246.19H326.062V250H322.762V246.19ZM322.762 243.19V235H322.702L319.462 243.19H322.762Z" fill="#F2F2F2"/>
<path d="M273.147 110.72C273.147 109.22 273.387 107.94 273.867 106.88C274.347 105.8 275.207 104.61 276.447 103.31C277.667 102.01 278.507 100.9 278.967 99.98C279.447 99.06 279.687 98.1 279.687 97.1C279.687 96.2 279.537 95.58 279.237 95.24C278.957 94.88 278.537 94.7 277.977 94.7C276.837 94.7 276.267 95.39 276.267 96.77V99.02H273.147V96.98C273.147 95.28 273.567 93.98 274.407 93.08C275.247 92.16 276.467 91.7 278.067 91.7C279.667 91.7 280.887 92.16 281.727 93.08C282.567 93.98 282.987 95.28 282.987 96.98C282.987 98.26 282.677 99.51 282.057 100.73C281.457 101.95 280.407 103.35 278.907 104.93C277.927 105.97 277.267 106.82 276.927 107.48C276.587 108.12 276.417 108.81 276.417 109.55V110H282.687V113H273.147V110.72ZM289.988 113.3C288.368 113.3 287.128 112.84 286.268 111.92C285.408 111 284.978 109.7 284.978 108.02V96.98C284.978 95.3 285.408 94 286.268 93.08C287.128 92.16 288.368 91.7 289.988 91.7C291.608 91.7 292.848 92.16 293.708 93.08C294.568 94 294.998 95.3 294.998 96.98V108.02C294.998 109.7 294.568 111 293.708 111.92C292.848 112.84 291.608 113.3 289.988 113.3ZM289.988 110.3C291.128 110.3 291.698 109.61 291.698 108.23V96.77C291.698 95.39 291.128 94.7 289.988 94.7C288.848 94.7 288.278 95.39 288.278 96.77V108.23C288.278 109.61 288.848 110.3 289.988 110.3ZM297.17 110.72C297.17 109.22 297.41 107.94 297.89 106.88C298.37 105.8 299.23 104.61 300.47 103.31C301.69 102.01 302.53 100.9 302.99 99.98C303.47 99.06 303.71 98.1 303.71 97.1C303.71 96.2 303.56 95.58 303.26 95.24C302.98 94.88 302.56 94.7 302 94.7C300.86 94.7 300.29 95.39 300.29 96.77V99.02H297.17V96.98C297.17 95.28 297.59 93.98 298.43 93.08C299.27 92.16 300.49 91.7 302.09 91.7C303.69 91.7 304.91 92.16 305.75 93.08C306.59 93.98 307.01 95.28 307.01 96.98C307.01 98.26 306.7 99.51 306.08 100.73C305.48 101.95 304.43 103.35 302.93 104.93C301.95 105.97 301.29 106.82 300.95 107.48C300.61 108.12 300.44 108.81 300.44 109.55V110H306.71V113H297.17V110.72ZM314.072 113.3C312.472 113.3 311.252 112.85 310.412 111.95C309.572 111.03 309.152 109.72 309.152 108.02V106.37H312.272V108.26C312.272 109.62 312.842 110.3 313.982 110.3C315.122 110.3 315.692 109.62 315.692 108.26V103.55C315.692 102.17 315.122 101.48 313.982 101.48C312.842 101.48 312.272 102.17 312.272 103.55V103.73H309.152L309.752 92H318.452V95H312.692L312.422 100.01H312.482C313.102 98.99 314.052 98.48 315.332 98.48C316.532 98.48 317.442 98.89 318.062 99.71C318.682 100.53 318.992 101.72 318.992 103.28V108.02C318.992 109.72 318.572 111.03 317.732 111.95C316.892 112.85 315.672 113.3 314.072 113.3Z" fill="#F2F2F2"/>
<path d="M358 0L352.227 10L363.774 10L358 0ZM359 934L359 9L357 9L357 934L359 934Z" fill="white"/>
<line x1="260" y1="651.5" x2="456" y2="651.5" stroke="white"/>
<line x1="297" y1="493.5" x2="419" y2="493.5" stroke="white"/>
<line x1="296" y1="731.5" x2="418" y2="731.5" stroke="white"/>
<line x1="310" y1="750.5" x2="399" y2="750.5" stroke="white"/>
<line x1="298" y1="768.5" x2="420" y2="768.5" stroke="white"/>
<line x1="315" y1="787.5" x2="398" y2="787.5" stroke="white"/>
<line x1="310" y1="806.5" x2="408" y2="806.5" stroke="white"/>
<line x1="298" y1="824.5" x2="420" y2="824.5" stroke="white"/>
<line x1="317" y1="843.5" x2="398" y2="843.5" stroke="white"/>
<line x1="339" y1="861.5" x2="379" y2="861.5" stroke="white"/>
<line x1="331" y1="880.5" x2="385" y2="880.5" stroke="white"/>
<line x1="260" y1="714.5" x2="456" y2="714.5" stroke="white"/>
<line x1="260" y1="899.5" x2="509" y2="899.5" stroke="white"/>
<line x1="259.997" y1="588.5" x2="455.997" y2="587.5" stroke="white"/>
<line x1="259.997" y1="399.5" x2="455.997" y2="398.5" stroke="white"/>
<line x1="265.997" y1="255.5" x2="461.997" y2="254.5" stroke="white"/>
<line x1="259.997" y1="122.5" x2="455.997" y2="121.5" stroke="white"/>
</svg>
