<svg width="218" height="268" viewBox="0 0 218 268" fill="none" xmlns="http://www.w3.org/2000/svg">
<path d="M197.99 197.115H36.9902V239.83H197.99V197.115Z" stroke="#F2F2F2" stroke-miterlimit="10"/>
<path d="M42.9902 197.115V24.6768H73.8502V188.574V196.624" stroke="#F2F2F2" stroke-miterlimit="10"/>
<path d="M174.31 203.634H58.8799C51.0098 203.634 44.6299 209.895 44.6299 217.618C44.6299 225.342 51.0098 231.603 58.8799 231.603H174.31C182.18 231.603 188.56 225.342 188.56 217.618C188.56 209.895 182.18 203.634 174.31 203.634Z" stroke="#F2F2F2" stroke-miterlimit="10"/>
<path d="M66.9102 179.277H73.8502" stroke="#F2F2F2" stroke-miterlimit="10"/>
<path d="M73.7205 166.485H61.7705" stroke="#F2F2F2" stroke-miterlimit="10"/>
<path d="M66.71 154.872H73.65" stroke="#F2F2F2" stroke-miterlimit="10"/>
<path d="M66.9502 129.887H73.8902" stroke="#F2F2F2" stroke-miterlimit="10"/>
<path d="M66.3506 105.492H73.2906" stroke="#F2F2F2" stroke-miterlimit="10"/>
<path d="M66.5898 80.3892H73.5298" stroke="#F2F2F2" stroke-miterlimit="10"/>
<path d="M66.5898 55.8657H73.5298" stroke="#F2F2F2" stroke-miterlimit="10"/>
<path d="M66.9502 31.1167H73.8902" stroke="#F2F2F2" stroke-miterlimit="10"/>
<path d="M74.2205 142.562H62.2705" stroke="#F2F2F2" stroke-miterlimit="10"/>
<path d="M73.4207 117.822H61.4707" stroke="#F2F2F2" stroke-miterlimit="10"/>
<path d="M73.8306 92.6997H61.8906" stroke="#F2F2F2" stroke-miterlimit="10"/>
<path d="M73.9998 67.9507H62.0498" stroke="#F2F2F2" stroke-miterlimit="10"/>
<path d="M73.6102 43.2114H61.6602" stroke="#F2F2F2" stroke-miterlimit="10"/>
<line x1="37.5" y1="243" x2="37.5" y2="268" stroke="#F2F2F2" stroke-dasharray="4 4 6 2"/>
<line x1="33" y1="240.5" y2="240.5" stroke="#F2F2F2" stroke-dasharray="4 4 6 2"/>
<line x1="40" y1="24.5" x2="7" y2="24.5" stroke="#F2F2F2" stroke-dasharray="4 4 6 2"/>
<line x1="42.5" y1="1" x2="42.5" y2="22" stroke="#F2F2F2" stroke-dasharray="4 4 6 2"/>
<line x1="74.5" y1="1" x2="74.5" y2="22" stroke="#F2F2F2" stroke-dasharray="4 4 6 2"/>
<line x1="198.5" y1="243" x2="198.5" y2="268" stroke="#F2F2F2" stroke-dasharray="4 4 6 2"/>
<path d="M44 3L49 5.88675V0.113249L44 3ZM73 3L68 0.113249V5.88675L73 3ZM48.5 3.5H68.5V2.5H48.5V3.5Z" fill="#F2F2F2"/>
<path d="M7 25L4.11325 30H9.88675L7 25ZM7 240L9.88675 235H4.11325L7 240ZM6.5 29.5L6.5 235.5H7.5L7.5 29.5H6.5Z" fill="#F2F2F2"/>
<path d="M198 261L193 258.113L193 263.887L198 261ZM37 261L42 263.887L42 258.113L37 261ZM193.5 260.5L41.5 260.5L41.5 261.5L193.5 261.5L193.5 260.5Z" fill="#F2F2F2"/>
<path d="M78.0204 100.053L78.0309 99.5529L78.0309 99.5529L78.0204 100.053ZM75.5 100L80.4385 102.991L80.5593 97.2186L75.5 100ZM171 195L173.77 189.934L167.998 190.068L171 195ZM171.395 190.483C169.07 140.616 128.452 100.609 78.0309 99.5529L78.01 100.553C127.903 101.598 168.095 141.186 170.396 190.529L171.395 190.483Z" fill="#F2F2F2"/>
</svg>
