<svg width="197" height="53" viewBox="0 0 197 53" fill="none" xmlns="http://www.w3.org/2000/svg">
<rect x="0.5" y="4.5" width="196" height="48" rx="24" fill="#C8C8C8" stroke="#C8C8C8"/>
<rect x="91.5" y="4.5" width="105" height="48" rx="24" fill="#F2F2F2" stroke="#C8C8C8"/>
<path d="M117.503 17H120.683L122.153 33.14H122.213L123.773 17H127.373L128.933 33.14H128.993L130.463 17H133.313L131.183 38H127.073L125.573 23.84H125.513L124.013 38H119.633L117.503 17ZM134.982 17H138.282V25.55H141.822V17H145.122V38H141.822V28.55H138.282V38H134.982V17ZM147.58 17H150.88V38H147.58V17ZM155.931 20H152.481V17H162.681V20H159.231V38H155.931V20ZM164.279 17H173.279V20H167.579V25.55H172.109V28.55H167.579V35H173.279V38H164.279V17Z" fill="#101010"/>
<path d="M122.536 1.46446C123.473 0.526783 124.745 0 126.071 0H160.929C162.255 0 163.527 0.526784 164.464 1.46447L167 4H120L122.536 1.46446Z" fill="#101010"/>
</svg>
